<svg width="341" height="38" viewBox="0 0 341 38" fill="none" xmlns="http://www.w3.org/2000/svg"><path d="M10.4363 9.50324C1.47614 10.0098 -0.238067 3.59352 0.0248484 0.322071V0.00547936H10.7518C23.6242 -0.247794 26.9474 8.3424 27 12.6692C26.2428 24.6997 15.8524 26.5464 10.7518 25.966C11.0043 35.8437 3.70569 38.1021 0.0248484 37.9965V12.9858C3.30601 15.7718 8.33296 16.1517 10.4363 15.9934V19.3176L18.6393 12.6692L10.4363 6.17902V9.50324Z" fill="#113B5B"></path> <path d="M44.124 27.112C44.124 27.248 44.1 27.38 44.052 27.508C44.004 27.628 43.924 27.724 43.812 27.796C43.724 27.884 43.62 27.94 43.5 27.964C43.38 27.988 43.276 28 43.188 28H40.824C40.656 28 40.52 27.98 40.416 27.94C40.312 27.892 40.228 27.828 40.164 27.748C40.1 27.668 40.044 27.572 39.996 27.46C39.956 27.34 39.912 27.212 39.864 27.076L39.708 26.536C39.492 26.752 39.244 26.964 38.964 27.172C38.692 27.38 38.388 27.568 38.052 27.736C37.724 27.896 37.368 28.024 36.984 28.12C36.608 28.224 36.216 28.276 35.808 28.276C35.08 28.276 34.38 28.184 33.708 28C33.044 27.816 32.42 27.556 31.836 27.22C31.26 26.876 30.736 26.468 30.264 25.996C29.792 25.516 29.384 24.984 29.04 24.4C28.704 23.816 28.444 23.188 28.26 22.516C28.076 21.836 27.984 21.128 27.984 20.392C27.984 19.28 28.188 18.248 28.596 17.296C29.004 16.336 29.56 15.504 30.264 14.8C30.968 14.088 31.796 13.532 32.748 13.132C33.7 12.724 34.72 12.52 35.808 12.52C36.304 12.52 36.764 12.576 37.188 12.688C37.62 12.8 38.012 12.952 38.364 13.144C38.724 13.336 39.048 13.568 39.336 13.84C39.624 14.104 39.876 14.392 40.092 14.704L40.44 13.612C40.52 13.412 40.584 13.252 40.632 13.132C40.688 13.004 40.744 12.912 40.8 12.856C40.864 12.792 40.94 12.752 41.028 12.736C41.116 12.712 41.24 12.7 41.4 12.7H43.188C43.276 12.7 43.38 12.712 43.5 12.736C43.62 12.76 43.724 12.816 43.812 12.904C43.924 12.992 44.004 13.092 44.052 13.204C44.1 13.316 44.124 13.444 44.124 13.588V27.112ZM32.304 20.392C32.304 20.92 32.384 21.416 32.544 21.88C32.712 22.336 32.948 22.732 33.252 23.068C33.556 23.404 33.92 23.672 34.344 23.872C34.776 24.064 35.252 24.16 35.772 24.16C36.308 24.16 36.804 24.064 37.26 23.872C37.724 23.672 38.124 23.404 38.46 23.068C38.804 22.732 39.072 22.336 39.264 21.88C39.456 21.416 39.552 20.92 39.552 20.392C39.552 19.88 39.456 19.392 39.264 18.928C39.072 18.464 38.804 18.056 38.46 17.704C38.124 17.352 37.724 17.076 37.26 16.876C36.804 16.668 36.308 16.564 35.772 16.564C35.252 16.564 34.776 16.668 34.344 16.876C33.92 17.076 33.556 17.352 33.252 17.704C32.948 18.056 32.712 18.464 32.544 18.928C32.384 19.392 32.304 19.88 32.304 20.392ZM47.3985 13.912C47.2705 13.592 47.2665 13.32 47.3865 13.096C47.5145 12.864 47.7905 12.748 48.2145 12.748H51.1785C51.3785 12.748 51.5425 12.812 51.6705 12.94C51.7985 13.06 51.8945 13.212 51.9585 13.396L55.3545 23.056L58.6785 13.396C58.7665 13.14 58.8785 12.968 59.0145 12.88C59.1505 12.792 59.3385 12.748 59.5785 12.748H62.6625C62.8865 12.748 63.0625 12.78 63.1905 12.844C63.3185 12.9 63.4065 12.98 63.4545 13.084C63.5105 13.18 63.5305 13.292 63.5145 13.42C63.4985 13.54 63.4665 13.66 63.4185 13.78C63.1145 14.532 62.7825 15.356 62.4225 16.252C62.0625 17.14 61.6865 18.068 61.2945 19.036C60.9105 19.996 60.5185 20.976 60.1185 21.976C59.7185 22.968 59.3265 23.944 58.9425 24.904C58.5665 25.864 58.2025 26.788 57.8505 27.676C57.4985 28.556 57.1745 29.364 56.8785 30.1C56.5905 30.844 56.3385 31.496 56.1225 32.056C55.9065 32.616 55.7425 33.048 55.6305 33.352L55.6665 33.292C55.6105 33.508 55.5105 33.68 55.3665 33.808C55.2225 33.944 55.0465 34.012 54.8385 34.012H52.0665C51.7065 34.012 51.4585 33.94 51.3225 33.796C51.1945 33.66 51.1305 33.456 51.1305 33.184C51.1305 33.08 51.1425 33 51.1665 32.944C51.1985 32.888 51.2225 32.852 51.2385 32.836L53.1225 27.94L47.3985 13.912Z" fill="#143D59"></path> <path d="M65.38 30C65.22 30 65.08 29.944 64.96 29.832C64.848 29.72 64.792 29.584 64.792 29.424V28.128C64.792 28.04 64.82 27.932 64.876 27.804L76.312 14.508H65.584C65.2 14.508 65.008 14.32 65.008 13.944V12.708C65.008 12.356 65.2 12.18 65.584 12.18H78.916C79.068 12.18 79.2 12.232 79.312 12.336C79.424 12.432 79.48 12.564 79.48 12.732V14.052C79.48 14.172 79.444 14.296 79.372 14.424L68.068 27.672H78.952C79.112 27.672 79.244 27.716 79.348 27.804C79.452 27.892 79.504 28.036 79.504 28.236V29.424C79.504 29.568 79.452 29.7 79.348 29.82C79.244 29.94 79.112 30 78.952 30H65.38ZM82.9514 22.404C82.9514 21.324 83.1594 20.308 83.5754 19.356C83.9994 18.396 84.5674 17.556 85.2794 16.836C85.9994 16.116 86.8354 15.548 87.7874 15.132C88.7394 14.716 89.7514 14.508 90.8234 14.508C91.5354 14.508 92.2234 14.604 92.8874 14.796C93.5594 14.98 94.1874 15.248 94.7714 15.6C95.3554 15.944 95.8874 16.356 96.3674 16.836C96.8474 17.316 97.2594 17.852 97.6034 18.444C97.9554 19.028 98.2234 19.656 98.4074 20.328C98.5994 20.992 98.6954 21.684 98.6954 22.404C98.6954 23.124 98.5994 23.82 98.4074 24.492C98.2234 25.156 97.9554 25.78 97.6034 26.364C97.2594 26.948 96.8474 27.48 96.3674 27.96C95.8874 28.44 95.3554 28.852 94.7714 29.196C94.1874 29.54 93.5594 29.808 92.8874 30C92.2234 30.184 91.5354 30.276 90.8234 30.276C90.1114 30.276 89.4194 30.184 88.7474 30C88.0834 29.808 87.4594 29.54 86.8754 29.196C86.2914 28.852 85.7594 28.44 85.2794 27.96C84.7994 27.48 84.3874 26.948 84.0434 26.364C83.6994 25.78 83.4314 25.156 83.2394 24.492C83.0474 23.82 82.9514 23.124 82.9514 22.404ZM85.3394 22.404C85.3394 23.164 85.4834 23.884 85.7714 24.564C86.0594 25.244 86.4514 25.84 86.9474 26.352C87.4434 26.864 88.0234 27.272 88.6874 27.576C89.3514 27.88 90.0634 28.032 90.8234 28.032C91.5754 28.032 92.2794 27.88 92.9354 27.576C93.5994 27.272 94.1754 26.864 94.6634 26.352C95.1594 25.84 95.5474 25.244 95.8274 24.564C96.1154 23.884 96.2594 23.164 96.2594 22.404C96.2594 21.66 96.1154 20.944 95.8274 20.256C95.5474 19.568 95.1594 18.964 94.6634 18.444C94.1754 17.916 93.5994 17.496 92.9354 17.184C92.2794 16.872 91.5754 16.716 90.8234 16.716C90.0634 16.716 89.3514 16.872 88.6874 17.184C88.0234 17.496 87.4434 17.916 86.9474 18.444C86.4514 18.964 86.0594 19.568 85.7714 20.256C85.4834 20.944 85.3394 21.66 85.3394 22.404ZM105.47 16.776C105.694 16.496 105.946 16.224 106.226 15.96C106.506 15.688 106.818 15.448 107.162 15.24C107.514 15.024 107.902 14.852 108.326 14.724C108.75 14.588 109.226 14.52 109.754 14.52C110.738 14.52 111.606 14.692 112.358 15.036C113.11 15.372 113.738 15.836 114.242 16.428C114.754 17.012 115.138 17.7 115.394 18.492C115.658 19.284 115.79 20.132 115.79 21.036V29.184C115.79 29.456 115.718 29.66 115.574 29.796C115.438 29.932 115.262 30 115.046 30H114.158C113.862 30 113.67 29.94 113.582 29.82C113.502 29.7 113.462 29.5 113.462 29.22V21.036C113.462 20.556 113.394 20.068 113.258 19.572C113.13 19.068 112.914 18.612 112.61 18.204C112.314 17.796 111.918 17.464 111.422 17.208C110.926 16.952 110.318 16.824 109.598 16.824C109.142 16.824 108.67 16.908 108.182 17.076C107.694 17.236 107.25 17.476 106.85 17.796C106.45 18.116 106.118 18.512 105.854 18.984C105.598 19.456 105.47 19.996 105.47 20.604V29.472C105.47 29.824 105.294 30 104.942 30H103.706C103.33 30 103.142 29.824 103.142 29.472V15.288C103.142 15.128 103.194 15 103.298 14.904C103.402 14.808 103.526 14.76 103.67 14.76H104.918C105.086 14.76 105.218 14.812 105.314 14.916C105.418 15.02 105.47 15.144 105.47 15.288V16.776ZM131.084 26.508C131.156 26.444 131.232 26.384 131.312 26.328C131.4 26.272 131.488 26.244 131.576 26.244C131.696 26.244 131.812 26.316 131.924 26.46C132.084 26.676 132.212 26.852 132.308 26.988C132.412 27.124 132.496 27.232 132.56 27.312C132.624 27.4 132.672 27.464 132.704 27.504C132.744 27.552 132.776 27.604 132.8 27.66C132.824 27.708 132.836 27.764 132.836 27.828C132.836 27.916 132.8 28.012 132.728 28.116C132.664 28.212 132.548 28.328 132.38 28.464C132.036 28.736 131.676 28.984 131.3 29.208C130.932 29.424 130.544 29.612 130.136 29.772C129.728 29.932 129.296 30.056 128.84 30.144C128.392 30.232 127.916 30.276 127.412 30.276C126.7 30.276 126.012 30.184 125.348 30C124.684 29.808 124.056 29.54 123.464 29.196C122.88 28.844 122.344 28.428 121.856 27.948C121.376 27.468 120.96 26.936 120.608 26.352C120.256 25.768 119.984 25.144 119.792 24.48C119.6 23.808 119.504 23.112 119.504 22.392C119.504 21.672 119.592 20.976 119.768 20.304C119.952 19.632 120.208 19.004 120.536 18.42C120.872 17.836 121.276 17.304 121.748 16.824C122.22 16.344 122.748 15.932 123.332 15.588C123.924 15.244 124.56 14.98 125.24 14.796C125.928 14.604 126.652 14.508 127.412 14.508C128.012 14.508 128.608 14.576 129.2 14.712C129.792 14.848 130.36 15.048 130.904 15.312C131.448 15.568 131.956 15.888 132.428 16.272C132.908 16.656 133.336 17.096 133.712 17.592C134.224 18.28 134.604 19.064 134.852 19.944C135.1 20.824 135.216 21.836 135.2 22.98C135.2 23.356 135.024 23.544 134.672 23.544H122.024C122.16 24.184 122.396 24.776 122.732 25.32C123.076 25.864 123.484 26.34 123.956 26.748C124.436 27.148 124.968 27.464 125.552 27.696C126.136 27.92 126.74 28.032 127.364 28.032C127.804 28.032 128.2 27.992 128.552 27.912C128.912 27.824 129.236 27.712 129.524 27.576C129.82 27.432 130.092 27.272 130.34 27.096C130.588 26.912 130.828 26.724 131.06 26.532L131.084 26.508ZM124.508 17.628C123.9 18.036 123.376 18.552 122.936 19.176C122.496 19.792 122.196 20.472 122.036 21.216H132.884C132.796 20.552 132.588 19.948 132.26 19.404C131.94 18.86 131.536 18.396 131.048 18.012C130.56 17.628 130.008 17.332 129.392 17.124C128.784 16.908 128.152 16.8 127.496 16.8C126.976 16.8 126.46 16.868 125.948 17.004C125.444 17.14 124.964 17.348 124.508 17.628Z" fill="#143D59"></path> <path d="M164.841 28C164.738 28 164.65 27.9487 164.575 27.846L158.464 19.656V27.692C158.464 27.8973 158.357 28 158.142 28H157.435C157.23 28 157.127 27.8973 157.127 27.692V17.927C157.127 17.8337 157.155 17.7567 157.211 17.696C157.267 17.6353 157.342 17.605 157.435 17.605H158.373C158.494 17.605 158.592 17.6563 158.667 17.759L164.624 25.676V17.864C164.652 17.6913 164.755 17.605 164.932 17.605H165.639C165.723 17.605 165.8 17.633 165.87 17.689C165.945 17.745 165.982 17.8197 165.982 17.913V27.692C165.982 27.8973 165.868 28 165.639 28H164.841ZM175.299 25.963C175.341 25.9257 175.386 25.8907 175.432 25.858C175.484 25.8253 175.535 25.809 175.586 25.809C175.656 25.809 175.724 25.851 175.789 25.935C175.883 26.061 175.957 26.1637 176.013 26.243C176.074 26.3223 176.123 26.3853 176.16 26.432C176.198 26.4833 176.226 26.5207 176.244 26.544C176.268 26.572 176.286 26.6023 176.3 26.635C176.314 26.663 176.321 26.6957 176.321 26.733C176.321 26.7843 176.3 26.8403 176.258 26.901C176.221 26.957 176.153 27.0247 176.055 27.104C175.855 27.2627 175.645 27.4073 175.425 27.538C175.211 27.664 174.984 27.7737 174.746 27.867C174.508 27.9603 174.256 28.0327 173.99 28.084C173.729 28.1353 173.451 28.161 173.157 28.161C172.742 28.161 172.341 28.1073 171.953 28C171.566 27.888 171.2 27.7317 170.854 27.531C170.514 27.3257 170.201 27.083 169.916 26.803C169.636 26.523 169.394 26.2127 169.188 25.872C168.983 25.5313 168.824 25.1673 168.712 24.78C168.6 24.388 168.544 23.982 168.544 23.562C168.544 23.142 168.596 22.736 168.698 22.344C168.806 21.952 168.955 21.5857 169.146 21.245C169.342 20.9043 169.578 20.594 169.853 20.314C170.129 20.034 170.437 19.7937 170.777 19.593C171.123 19.3923 171.494 19.2383 171.89 19.131C172.292 19.019 172.714 18.963 173.157 18.963C173.507 18.963 173.855 19.0027 174.2 19.082C174.546 19.1613 174.877 19.278 175.194 19.432C175.512 19.5813 175.808 19.768 176.083 19.992C176.363 20.216 176.613 20.4727 176.832 20.762C177.131 21.1633 177.353 21.6207 177.497 22.134C177.642 22.6473 177.71 23.2377 177.7 23.905C177.7 24.1243 177.598 24.234 177.392 24.234H170.014C170.094 24.6073 170.231 24.9527 170.427 25.27C170.628 25.5873 170.866 25.865 171.141 26.103C171.421 26.3363 171.732 26.5207 172.072 26.656C172.413 26.7867 172.765 26.852 173.129 26.852C173.386 26.852 173.617 26.8287 173.822 26.782C174.032 26.7307 174.221 26.6653 174.389 26.586C174.562 26.502 174.721 26.4087 174.865 26.306C175.01 26.1987 175.15 26.089 175.285 25.977L175.299 25.963ZM171.463 20.783C171.109 21.021 170.803 21.322 170.546 21.686C170.29 22.0453 170.115 22.442 170.021 22.876H176.349C176.298 22.4887 176.177 22.1363 175.985 21.819C175.799 21.5017 175.563 21.231 175.278 21.007C174.994 20.783 174.672 20.6103 174.312 20.489C173.958 20.363 173.589 20.3 173.206 20.3C172.903 20.3 172.602 20.3397 172.303 20.419C172.009 20.4983 171.729 20.6197 171.463 20.783ZM186.679 25.963C186.721 25.9257 186.765 25.8907 186.812 25.858C186.863 25.8253 186.914 25.809 186.966 25.809C187.036 25.809 187.103 25.851 187.169 25.935C187.262 26.061 187.337 26.1637 187.393 26.243C187.453 26.3223 187.502 26.3853 187.54 26.432C187.577 26.4833 187.605 26.5207 187.624 26.544C187.647 26.572 187.666 26.6023 187.68 26.635C187.694 26.663 187.701 26.6957 187.701 26.733C187.701 26.7843 187.68 26.8403 187.638 26.901C187.6 26.957 187.533 27.0247 187.435 27.104C187.234 27.2627 187.024 27.4073 186.805 27.538C186.59 27.664 186.364 27.7737 186.126 27.867C185.888 27.9603 185.636 28.0327 185.37 28.084C185.108 28.1353 184.831 28.161 184.537 28.161C184.121 28.161 183.72 28.1073 183.333 28C182.945 27.888 182.579 27.7317 182.234 27.531C181.893 27.3257 181.58 27.083 181.296 26.803C181.016 26.523 180.773 26.2127 180.568 25.872C180.362 25.5313 180.204 25.1673 180.092 24.78C179.98 24.388 179.924 23.982 179.924 23.562C179.924 23.142 179.975 22.736 180.078 22.344C180.185 21.952 180.334 21.5857 180.526 21.245C180.722 20.9043 180.957 20.594 181.233 20.314C181.508 20.034 181.816 19.7937 182.157 19.593C182.502 19.3923 182.873 19.2383 183.27 19.131C183.671 19.019 184.093 18.963 184.537 18.963C184.887 18.963 185.234 19.0027 185.58 19.082C185.925 19.1613 186.256 19.278 186.574 19.432C186.891 19.5813 187.187 19.768 187.463 19.992C187.743 20.216 187.992 20.4727 188.212 20.762C188.51 21.1633 188.732 21.6207 188.877 22.134C189.021 22.6473 189.089 23.2377 189.08 23.905C189.08 24.1243 188.977 24.234 188.772 24.234H181.394C181.473 24.6073 181.611 24.9527 181.807 25.27C182.007 25.5873 182.245 25.865 182.521 26.103C182.801 26.3363 183.111 26.5207 183.452 26.656C183.792 26.7867 184.145 26.852 184.509 26.852C184.765 26.852 184.996 26.8287 185.202 26.782C185.412 26.7307 185.601 26.6653 185.769 26.586C185.941 26.502 186.1 26.4087 186.245 26.306C186.389 26.1987 186.529 26.089 186.665 25.977L186.679 25.963ZM182.843 20.783C182.488 21.021 182.182 21.322 181.926 21.686C181.669 22.0453 181.494 22.442 181.401 22.876H187.729C187.677 22.4887 187.556 22.1363 187.365 21.819C187.178 21.5017 186.942 21.231 186.658 21.007C186.373 20.783 186.051 20.6103 185.692 20.489C185.337 20.363 184.968 20.3 184.586 20.3C184.282 20.3 183.981 20.3397 183.683 20.419C183.389 20.4983 183.109 20.6197 182.843 20.783ZM199.346 28C199.141 28 199.038 27.8973 199.038 27.692V26.845C198.637 27.2557 198.17 27.5777 197.638 27.811C197.106 28.0443 196.53 28.161 195.909 28.161C195.494 28.161 195.09 28.1073 194.698 28C194.311 27.888 193.947 27.7317 193.606 27.531C193.265 27.3303 192.955 27.09 192.675 26.81C192.395 26.53 192.152 26.2197 191.947 25.879C191.746 25.5383 191.59 25.1743 191.478 24.787C191.371 24.395 191.317 23.989 191.317 23.569C191.317 23.149 191.371 22.7453 191.478 22.358C191.59 21.966 191.746 21.5997 191.947 21.259C192.152 20.9137 192.395 20.601 192.675 20.321C192.955 20.041 193.265 19.8007 193.606 19.6C193.947 19.3947 194.311 19.2383 194.698 19.131C195.085 19.019 195.489 18.963 195.909 18.963C196.53 18.963 197.106 19.082 197.638 19.32C198.17 19.5533 198.637 19.8753 199.038 20.286V16.779C199.038 16.695 199.066 16.6227 199.122 16.562C199.183 16.5013 199.262 16.471 199.36 16.471H200.088C200.172 16.471 200.244 16.499 200.305 16.555C200.366 16.611 200.396 16.6857 200.396 16.779V27.692C200.396 27.8973 200.286 28 200.067 28H199.346ZM199.108 23.569C199.108 23.135 199.024 22.7173 198.856 22.316C198.688 21.9147 198.459 21.5623 198.17 21.259C197.881 20.951 197.54 20.706 197.148 20.524C196.761 20.342 196.348 20.251 195.909 20.251C195.47 20.251 195.057 20.342 194.67 20.524C194.287 20.706 193.951 20.951 193.662 21.259C193.377 21.5623 193.151 21.9147 192.983 22.316C192.82 22.7173 192.738 23.135 192.738 23.569C192.738 24.0123 192.82 24.4323 192.983 24.829C193.151 25.2257 193.377 25.5733 193.662 25.872C193.951 26.1707 194.287 26.4087 194.67 26.586C195.057 26.7633 195.47 26.852 195.909 26.852C196.348 26.852 196.761 26.7633 197.148 26.586C197.54 26.4087 197.881 26.1707 198.17 25.872C198.459 25.5733 198.688 25.2257 198.856 24.829C199.024 24.4323 199.108 24.0123 199.108 23.569ZM209.681 27.692C209.681 27.8973 209.578 28 209.373 28H208.652C208.432 28 208.323 27.8973 208.323 27.692V19.418C208.323 19.3247 208.353 19.25 208.414 19.194C208.474 19.138 208.547 19.11 208.631 19.11H209.359C209.457 19.11 209.534 19.1403 209.59 19.201C209.65 19.2617 209.681 19.334 209.681 19.418V27.692ZM209.681 17.493C209.681 17.6983 209.578 17.801 209.373 17.801H208.652C208.432 17.801 208.323 17.6983 208.323 17.493V16.772C208.323 16.6787 208.353 16.604 208.414 16.548C208.474 16.492 208.547 16.464 208.631 16.464H209.359C209.457 16.464 209.534 16.4943 209.59 16.555C209.65 16.611 209.681 16.6833 209.681 16.772V17.493ZM214.977 28.098C214.762 28.098 214.545 28.0723 214.326 28.021C214.111 27.9697 213.917 27.881 213.745 27.755C213.572 27.6243 213.43 27.4493 213.318 27.23C213.21 27.006 213.157 26.7213 213.157 26.376V20.307H212.345C212.228 20.307 212.142 20.2907 212.086 20.258C212.03 20.2207 212.002 20.1413 212.002 20.02V19.369C212.002 19.2477 212.03 19.173 212.086 19.145C212.142 19.1123 212.228 19.096 212.345 19.096H213.157V17.605C213.157 17.5257 213.173 17.4697 213.206 17.437C213.238 17.3997 213.294 17.3693 213.374 17.346C213.402 17.3367 213.458 17.3273 213.542 17.318C213.63 17.304 213.721 17.2877 213.815 17.269C213.927 17.2503 214.048 17.2293 214.179 17.206C214.258 17.1967 214.321 17.2013 214.368 17.22C214.414 17.2387 214.447 17.2667 214.466 17.304C214.489 17.3413 214.503 17.3857 214.508 17.437C214.512 17.4837 214.515 17.535 214.515 17.591V19.096H215.488C215.595 19.096 215.672 19.1193 215.719 19.166C215.77 19.2127 215.796 19.2967 215.796 19.418V19.971C215.796 20.0923 215.77 20.1787 215.719 20.23C215.672 20.2813 215.595 20.307 215.488 20.307H214.515V26.362C214.515 26.5253 214.554 26.6397 214.634 26.705C214.713 26.7703 214.823 26.803 214.963 26.803C215.07 26.803 215.159 26.8357 215.229 26.901C215.299 26.9663 215.334 27.0573 215.334 27.174V27.748C215.334 27.8553 215.301 27.9393 215.236 28C215.17 28.0653 215.084 28.098 214.977 28.098ZM219.383 27.692C219.383 27.8973 219.28 28 219.075 28H218.354C218.139 28 218.032 27.8973 218.032 27.692V26.971C218.032 26.8777 218.06 26.803 218.116 26.747C218.176 26.691 218.251 26.663 218.34 26.663H219.061C219.163 26.663 219.243 26.6933 219.299 26.754C219.355 26.81 219.383 26.8823 219.383 26.971V27.692ZM228.184 19.369C228.273 19.6023 228.387 19.8987 228.527 20.258C228.667 20.6173 228.819 21.007 228.982 21.427C229.145 21.8423 229.313 22.2717 229.486 22.715C229.663 23.1583 229.831 23.5807 229.99 23.982C230.153 24.3833 230.3 24.7497 230.431 25.081C230.566 25.4077 230.674 25.6667 230.753 25.858C230.912 25.4613 231.201 24.724 231.621 23.646C232.041 22.568 232.592 21.14 233.273 19.362C233.306 19.2827 233.352 19.2197 233.413 19.173C233.474 19.1263 233.551 19.103 233.644 19.103H234.421C234.626 19.103 234.729 19.1847 234.729 19.348C234.729 19.362 234.727 19.3783 234.722 19.397C234.717 19.4157 234.71 19.4367 234.701 19.46C234.692 19.4833 234.685 19.509 234.68 19.537L234.001 21.203L235.849 25.858C235.924 25.6667 236.026 25.4077 236.157 25.081C236.288 24.7497 236.43 24.3833 236.584 23.982C236.743 23.576 236.908 23.1513 237.081 22.708C237.254 22.2647 237.419 21.8353 237.578 21.42C237.741 21 237.891 20.6103 238.026 20.251C238.166 19.8917 238.28 19.5953 238.369 19.362C238.402 19.2827 238.448 19.2197 238.509 19.173C238.57 19.1263 238.647 19.103 238.74 19.103H239.517C239.722 19.103 239.825 19.1847 239.825 19.348C239.825 19.362 239.823 19.3783 239.818 19.397C239.813 19.4157 239.806 19.4367 239.797 19.46C239.788 19.4833 239.781 19.509 239.776 19.537L236.451 27.741C236.437 27.7643 236.423 27.7923 236.409 27.825C236.4 27.853 236.381 27.881 236.353 27.909C236.33 27.9323 236.297 27.9533 236.255 27.972C236.213 27.9907 236.155 28 236.08 28H235.618C235.543 28 235.485 27.9907 235.443 27.972C235.401 27.9533 235.366 27.9323 235.338 27.909C235.315 27.881 235.296 27.853 235.282 27.825C235.273 27.7923 235.261 27.7643 235.247 27.741L233.287 22.974L231.355 27.741C231.341 27.7643 231.327 27.7923 231.313 27.825C231.304 27.853 231.285 27.881 231.257 27.909C231.234 27.9323 231.201 27.9533 231.159 27.972C231.117 27.9907 231.059 28 230.984 28H230.522C230.447 28 230.389 27.9907 230.347 27.972C230.305 27.9533 230.27 27.9323 230.242 27.909C230.219 27.881 230.2 27.853 230.186 27.825C230.177 27.7923 230.165 27.7643 230.151 27.741L226.784 19.544C226.779 19.53 226.775 19.5137 226.77 19.495C226.761 19.4577 226.756 19.411 226.756 19.355C226.756 19.1917 226.863 19.11 227.078 19.11H227.813C227.906 19.11 227.983 19.1333 228.044 19.18C228.105 19.2267 228.151 19.2897 228.184 19.369ZM249.231 26.817C248.829 27.2277 248.363 27.552 247.831 27.79C247.299 28.0233 246.722 28.14 246.102 28.14C245.686 28.14 245.283 28.0863 244.891 27.979C244.503 27.867 244.139 27.7107 243.799 27.51C243.458 27.3047 243.148 27.062 242.868 26.782C242.588 26.502 242.345 26.1917 242.14 25.851C241.939 25.5057 241.783 25.1393 241.671 24.752C241.563 24.36 241.51 23.954 241.51 23.534C241.51 23.114 241.563 22.7103 241.671 22.323C241.783 21.931 241.939 21.5647 242.14 21.224C242.345 20.8833 242.588 20.573 242.868 20.293C243.148 20.013 243.458 19.7727 243.799 19.572C244.139 19.3713 244.503 19.2173 244.891 19.11C245.278 18.998 245.682 18.942 246.102 18.942C246.722 18.942 247.299 19.061 247.831 19.299C248.363 19.5323 248.829 19.8543 249.231 20.265V19.411C249.231 19.2057 249.333 19.103 249.539 19.103H250.26C250.479 19.103 250.589 19.2057 250.589 19.411V27.692C250.589 27.7853 250.558 27.86 250.498 27.916C250.437 27.972 250.365 28 250.281 28H249.553C249.455 28 249.375 27.9697 249.315 27.909C249.259 27.8483 249.231 27.776 249.231 27.692V26.817ZM249.301 23.534C249.301 23.0953 249.217 22.6777 249.049 22.281C248.881 21.8797 248.652 21.5297 248.363 21.231C248.073 20.9323 247.733 20.6943 247.341 20.517C246.953 20.3397 246.54 20.251 246.102 20.251C245.663 20.251 245.25 20.3397 244.863 20.517C244.48 20.6943 244.144 20.9323 243.855 21.231C243.57 21.5297 243.344 21.8797 243.176 22.281C243.012 22.6777 242.931 23.0953 242.931 23.534C242.931 23.968 243.012 24.3857 243.176 24.787C243.344 25.1883 243.57 25.543 243.855 25.851C244.144 26.1543 244.48 26.397 244.863 26.579C245.25 26.761 245.663 26.852 246.102 26.852C246.54 26.852 246.953 26.761 247.341 26.579C247.733 26.397 248.073 26.1543 248.363 25.851C248.652 25.543 248.881 25.1883 249.049 24.787C249.217 24.3857 249.301 23.968 249.301 23.534ZM254.715 20.286C254.845 20.1227 254.992 19.964 255.156 19.81C255.319 19.6513 255.501 19.5113 255.702 19.39C255.907 19.264 256.133 19.1637 256.381 19.089C256.628 19.0097 256.906 18.97 257.214 18.97C257.788 18.97 258.294 19.0703 258.733 19.271C259.171 19.467 259.538 19.7377 259.832 20.083C260.13 20.4237 260.354 20.825 260.504 21.287C260.658 21.749 260.735 22.2437 260.735 22.771V27.524C260.735 27.6827 260.693 27.8017 260.609 27.881C260.529 27.9603 260.427 28 260.301 28H259.783C259.61 28 259.498 27.965 259.447 27.895C259.4 27.825 259.377 27.7083 259.377 27.545V22.771C259.377 22.491 259.337 22.2063 259.258 21.917C259.183 21.623 259.057 21.357 258.88 21.119C258.707 20.881 258.476 20.6873 258.187 20.538C257.897 20.3887 257.543 20.314 257.123 20.314C256.857 20.314 256.581 20.363 256.297 20.461C256.012 20.5543 255.753 20.6943 255.52 20.881C255.286 21.0677 255.093 21.2987 254.939 21.574C254.789 21.8493 254.715 22.1643 254.715 22.519V27.692C254.715 27.8973 254.612 28 254.407 28H253.686C253.466 28 253.357 27.8973 253.357 27.692V19.418C253.357 19.3247 253.387 19.25 253.448 19.194C253.508 19.138 253.581 19.11 253.665 19.11H254.393C254.491 19.11 254.568 19.1403 254.624 19.201C254.684 19.2617 254.715 19.334 254.715 19.418V20.286ZM265.589 28.098C265.374 28.098 265.157 28.0723 264.938 28.021C264.723 27.9697 264.53 27.881 264.357 27.755C264.184 27.6243 264.042 27.4493 263.93 27.23C263.823 27.006 263.769 26.7213 263.769 26.376V20.307H262.957C262.84 20.307 262.754 20.2907 262.698 20.258C262.642 20.2207 262.614 20.1413 262.614 20.02V19.369C262.614 19.2477 262.642 19.173 262.698 19.145C262.754 19.1123 262.84 19.096 262.957 19.096H263.769V17.605C263.769 17.5257 263.785 17.4697 263.818 17.437C263.851 17.3997 263.907 17.3693 263.986 17.346C264.014 17.3367 264.07 17.3273 264.154 17.318C264.243 17.304 264.334 17.2877 264.427 17.269C264.539 17.2503 264.66 17.2293 264.791 17.206C264.87 17.1967 264.933 17.2013 264.98 17.22C265.027 17.2387 265.059 17.2667 265.078 17.304C265.101 17.3413 265.115 17.3857 265.12 17.437C265.125 17.4837 265.127 17.535 265.127 17.591V19.096H266.1C266.207 19.096 266.284 19.1193 266.331 19.166C266.382 19.2127 266.408 19.2967 266.408 19.418V19.971C266.408 20.0923 266.382 20.1787 266.331 20.23C266.284 20.2813 266.207 20.307 266.1 20.307H265.127V26.362C265.127 26.5253 265.167 26.6397 265.246 26.705C265.325 26.7703 265.435 26.803 265.575 26.803C265.682 26.803 265.771 26.8357 265.841 26.901C265.911 26.9663 265.946 27.0573 265.946 27.174V27.748C265.946 27.8553 265.913 27.9393 265.848 28C265.783 28.0653 265.696 28.098 265.589 28.098ZM275.154 27.692C275.154 27.8973 275.051 28 274.846 28H274.125C273.905 28 273.796 27.8973 273.796 27.692V19.418C273.796 19.3247 273.826 19.25 273.887 19.194C273.947 19.138 274.02 19.11 274.104 19.11H274.832C274.93 19.11 275.007 19.1403 275.063 19.201C275.123 19.2617 275.154 19.334 275.154 19.418V27.692ZM275.154 17.493C275.154 17.6983 275.051 17.801 274.846 17.801H274.125C273.905 17.801 273.796 17.6983 273.796 17.493V16.772C273.796 16.6787 273.826 16.604 273.887 16.548C273.947 16.492 274.02 16.464 274.104 16.464H274.832C274.93 16.464 275.007 16.4943 275.063 16.555C275.123 16.611 275.154 16.6833 275.154 16.772V17.493ZM280.45 28.098C280.235 28.098 280.018 28.0723 279.799 28.021C279.584 27.9697 279.39 27.881 279.218 27.755C279.045 27.6243 278.903 27.4493 278.791 27.23C278.683 27.006 278.63 26.7213 278.63 26.376V20.307H277.818C277.701 20.307 277.615 20.2907 277.559 20.258C277.503 20.2207 277.475 20.1413 277.475 20.02V19.369C277.475 19.2477 277.503 19.173 277.559 19.145C277.615 19.1123 277.701 19.096 277.818 19.096H278.63V17.605C278.63 17.5257 278.646 17.4697 278.679 17.437C278.711 17.3997 278.767 17.3693 278.847 17.346C278.875 17.3367 278.931 17.3273 279.015 17.318C279.103 17.304 279.194 17.2877 279.288 17.269C279.4 17.2503 279.521 17.2293 279.652 17.206C279.731 17.1967 279.794 17.2013 279.841 17.22C279.887 17.2387 279.92 17.2667 279.939 17.304C279.962 17.3413 279.976 17.3857 279.981 17.437C279.985 17.4837 279.988 17.535 279.988 17.591V19.096H280.961C281.068 19.096 281.145 19.1193 281.192 19.166C281.243 19.2127 281.269 19.2967 281.269 19.418V19.971C281.269 20.0923 281.243 20.1787 281.192 20.23C281.145 20.2813 281.068 20.307 280.961 20.307H279.988V26.362C279.988 26.5253 280.027 26.6397 280.107 26.705C280.186 26.7703 280.296 26.803 280.436 26.803C280.543 26.803 280.632 26.8357 280.702 26.901C280.772 26.9663 280.807 27.0573 280.807 27.174V27.748C280.807 27.8553 280.774 27.9393 280.709 28C280.643 28.0653 280.557 28.098 280.45 28.098ZM284.856 27.692C284.856 27.8973 284.753 28 284.548 28H283.827C283.612 28 283.505 27.8973 283.505 27.692V26.971C283.505 26.8777 283.533 26.803 283.589 26.747C283.649 26.691 283.724 26.663 283.813 26.663H284.534C284.636 26.663 284.716 26.6933 284.772 26.754C284.828 26.81 284.856 26.8823 284.856 26.971V27.692ZM293.118 17.941C293.118 17.717 293.225 17.605 293.44 17.605H296.709C297.208 17.605 297.684 17.6657 298.137 17.787C298.59 17.9083 299.01 18.081 299.397 18.305C299.784 18.529 300.134 18.7997 300.447 19.117C300.76 19.4343 301.026 19.7867 301.245 20.174C301.469 20.5567 301.642 20.972 301.763 21.42C301.884 21.8633 301.945 22.3277 301.945 22.813C301.945 23.2937 301.882 23.7557 301.756 24.199C301.635 24.6377 301.46 25.0507 301.231 25.438C301.007 25.8207 300.736 26.1707 300.419 26.488C300.102 26.8007 299.749 27.069 299.362 27.293C298.975 27.517 298.557 27.692 298.109 27.818C297.661 27.9393 297.194 28 296.709 28H293.44C293.356 28 293.281 27.9813 293.216 27.944C293.151 27.902 293.118 27.8227 293.118 27.706V17.941ZM296.674 26.663C297.243 26.663 297.768 26.558 298.249 26.348C298.73 26.138 299.143 25.8557 299.488 25.501C299.838 25.1417 300.111 24.724 300.307 24.248C300.503 23.772 300.601 23.268 300.601 22.736C300.601 22.1667 300.498 21.6487 300.293 21.182C300.088 20.7153 299.808 20.3163 299.453 19.985C299.103 19.6537 298.692 19.397 298.221 19.215C297.75 19.033 297.246 18.942 296.709 18.942H294.462V26.663H296.674ZM304.317 23.569C304.317 22.939 304.439 22.3463 304.681 21.791C304.929 21.231 305.26 20.741 305.675 20.321C306.095 19.901 306.583 19.5697 307.138 19.327C307.694 19.0843 308.284 18.963 308.909 18.963C309.325 18.963 309.726 19.019 310.113 19.131C310.505 19.2383 310.872 19.3947 311.212 19.6C311.553 19.8007 311.863 20.041 312.143 20.321C312.423 20.601 312.664 20.9137 312.864 21.259C313.07 21.5997 313.226 21.966 313.333 22.358C313.445 22.7453 313.501 23.149 313.501 23.569C313.501 23.989 313.445 24.395 313.333 24.787C313.226 25.1743 313.07 25.5383 312.864 25.879C312.664 26.2197 312.423 26.53 312.143 26.81C311.863 27.09 311.553 27.3303 311.212 27.531C310.872 27.7317 310.505 27.888 310.113 28C309.726 28.1073 309.325 28.161 308.909 28.161C308.494 28.161 308.09 28.1073 307.698 28C307.311 27.888 306.947 27.7317 306.606 27.531C306.266 27.3303 305.955 27.09 305.675 26.81C305.395 26.53 305.155 26.2197 304.954 25.879C304.754 25.5383 304.597 25.1743 304.485 24.787C304.373 24.395 304.317 23.989 304.317 23.569ZM305.71 23.569C305.71 24.0123 305.794 24.4323 305.962 24.829C306.13 25.2257 306.359 25.5733 306.648 25.872C306.938 26.1707 307.276 26.4087 307.663 26.586C308.051 26.7633 308.466 26.852 308.909 26.852C309.348 26.852 309.759 26.7633 310.141 26.586C310.529 26.4087 310.865 26.1707 311.149 25.872C311.439 25.5733 311.665 25.2257 311.828 24.829C311.996 24.4323 312.08 24.0123 312.08 23.569C312.08 23.135 311.996 22.7173 311.828 22.316C311.665 21.9147 311.439 21.5623 311.149 21.259C310.865 20.951 310.529 20.706 310.141 20.524C309.759 20.342 309.348 20.251 308.909 20.251C308.466 20.251 308.051 20.342 307.663 20.524C307.276 20.706 306.938 20.951 306.648 21.259C306.359 21.5623 306.13 21.9147 305.962 22.316C305.794 22.7173 305.71 23.135 305.71 23.569ZM317.453 20.286C317.584 20.1227 317.731 19.964 317.894 19.81C318.058 19.6513 318.24 19.5113 318.44 19.39C318.646 19.264 318.872 19.1637 319.119 19.089C319.367 19.0097 319.644 18.97 319.952 18.97C320.526 18.97 321.033 19.0703 321.471 19.271C321.91 19.467 322.276 19.7377 322.57 20.083C322.869 20.4237 323.093 20.825 323.242 21.287C323.396 21.749 323.473 22.2437 323.473 22.771V27.524C323.473 27.6827 323.431 27.8017 323.347 27.881C323.268 27.9603 323.165 28 323.039 28H322.521C322.349 28 322.237 27.965 322.185 27.895C322.139 27.825 322.115 27.7083 322.115 27.545V22.771C322.115 22.491 322.076 22.2063 321.996 21.917C321.922 21.623 321.796 21.357 321.618 21.119C321.446 20.881 321.215 20.6873 320.925 20.538C320.636 20.3887 320.281 20.314 319.861 20.314C319.595 20.314 319.32 20.363 319.035 20.461C318.751 20.5543 318.492 20.6943 318.258 20.881C318.025 21.0677 317.831 21.2987 317.677 21.574C317.528 21.8493 317.453 22.1643 317.453 22.519V27.692C317.453 27.8973 317.351 28 317.145 28H316.424C316.205 28 316.095 27.8973 316.095 27.692V19.418C316.095 19.3247 316.126 19.25 316.186 19.194C316.247 19.138 316.319 19.11 316.403 19.11H317.131C317.229 19.11 317.306 19.1403 317.362 19.201C317.423 19.2617 317.453 19.334 317.453 19.418V20.286ZM332.395 25.963C332.437 25.9257 332.481 25.8907 332.528 25.858C332.579 25.8253 332.63 25.809 332.682 25.809C332.752 25.809 332.819 25.851 332.885 25.935C332.978 26.061 333.053 26.1637 333.109 26.243C333.169 26.3223 333.218 26.3853 333.256 26.432C333.293 26.4833 333.321 26.5207 333.34 26.544C333.363 26.572 333.382 26.6023 333.396 26.635C333.41 26.663 333.417 26.6957 333.417 26.733C333.417 26.7843 333.396 26.8403 333.354 26.901C333.316 26.957 333.249 27.0247 333.151 27.104C332.95 27.2627 332.74 27.4073 332.521 27.538C332.306 27.664 332.08 27.7737 331.842 27.867C331.604 27.9603 331.352 28.0327 331.086 28.084C330.824 28.1353 330.547 28.161 330.253 28.161C329.837 28.161 329.436 28.1073 329.049 28C328.661 27.888 328.295 27.7317 327.95 27.531C327.609 27.3257 327.296 27.083 327.012 26.803C326.732 26.523 326.489 26.2127 326.284 25.872C326.078 25.5313 325.92 25.1673 325.808 24.78C325.696 24.388 325.64 23.982 325.64 23.562C325.64 23.142 325.691 22.736 325.794 22.344C325.901 21.952 326.05 21.5857 326.242 21.245C326.438 20.9043 326.673 20.594 326.949 20.314C327.224 20.034 327.532 19.7937 327.873 19.593C328.218 19.3923 328.589 19.2383 328.986 19.131C329.387 19.019 329.809 18.963 330.253 18.963C330.603 18.963 330.95 19.0027 331.296 19.082C331.641 19.1613 331.972 19.278 332.29 19.432C332.607 19.5813 332.903 19.768 333.179 19.992C333.459 20.216 333.708 20.4727 333.928 20.762C334.226 21.1633 334.448 21.6207 334.593 22.134C334.737 22.6473 334.805 23.2377 334.796 23.905C334.796 24.1243 334.693 24.234 334.488 24.234H327.11C327.189 24.6073 327.327 24.9527 327.523 25.27C327.723 25.5873 327.961 25.865 328.237 26.103C328.517 26.3363 328.827 26.5207 329.168 26.656C329.508 26.7867 329.861 26.852 330.225 26.852C330.481 26.852 330.712 26.8287 330.918 26.782C331.128 26.7307 331.317 26.6653 331.485 26.586C331.657 26.502 331.816 26.4087 331.961 26.306C332.105 26.1987 332.245 26.089 332.381 25.977L332.395 25.963ZM328.559 20.783C328.204 21.021 327.898 21.322 327.642 21.686C327.385 22.0453 327.21 22.442 327.117 22.876H333.445C333.393 22.4887 333.272 22.1363 333.081 21.819C332.894 21.5017 332.658 21.231 332.374 21.007C332.089 20.783 331.767 20.6103 331.408 20.489C331.053 20.363 330.684 20.3 330.302 20.3C329.998 20.3 329.697 20.3397 329.399 20.419C329.105 20.4983 328.825 20.6197 328.559 20.783ZM338.804 27.692C338.804 27.8973 338.701 28 338.496 28H337.775C337.56 28 337.453 27.8973 337.453 27.692V26.971C337.453 26.8777 337.481 26.803 337.537 26.747C337.598 26.691 337.672 26.663 337.761 26.663H338.482C338.585 26.663 338.664 26.6933 338.72 26.754C338.776 26.81 338.804 26.8823 338.804 26.971V27.692Z" fill="#143D59"></path> <line x1="142.5" y1="13" x2="142.5" y2="33" stroke="#143D59"></line></svg>